<svg width="21" height="21" viewBox="0 0 21 21" fill="none" xmlns="http://www.w3.org/2000/svg">
<g opacity="0.7" clip-path="url(#clip0_2_224)">
<path d="M2.625 2.625H3.49995V0.874947C3.49995 0.392052 3.892 0 4.37505 0H5.25C5.73306 0 6.12495 0.392052 6.12495 0.874947V2.625H14.8751V0.874947C14.8751 0.392052 15.2669 0 15.75 0H16.6249C17.108 0 17.5001 0.392052 17.5001 0.874947V2.625H18.375C19.8222 2.625 21 3.80276 21 5.25V18.375C21 19.8222 19.8222 21 18.375 21H2.625C1.17776 21 0 19.8222 0 18.375V5.25C0 3.80276 1.17776 2.625 2.625 2.625ZM1.75005 18.375C1.75005 18.8571 2.14291 19.2499 2.625 19.2499H18.375C18.8571 19.2499 19.2499 18.8571 19.2499 18.375V8.78503H1.75005V18.375Z" fill="#282C3B"/>
</g>
<defs>
<clipPath id="clip0_2_224">
<rect width="21" height="21" fill="white" transform="matrix(-1 0 0 1 21 0)"/>
</clipPath>
</defs>
</svg>
