<svg width="13" height="13" viewBox="0 0 13 13" fill="none" xmlns="http://www.w3.org/2000/svg">
<path opacity="0.7" fill-rule="evenodd" clip-rule="evenodd" d="M0 12.0731H1.94403V1.67306H0V12.0731ZM5.2236 1.03999H11.0558V0H5.2236V1.03999ZM8.13978 2.59997C10.8239 2.59997 13 4.9282 13 7.80006C13 10.6719 10.8239 13 8.13978 13C5.45548 13 3.27971 10.6719 3.27971 7.80006C3.27971 4.9282 5.45548 2.59997 8.13978 2.59997ZM8.13978 4.6801C9.75028 4.6801 11.0558 6.07694 11.0558 7.80006C11.0558 9.52318 9.75028 10.92 8.13978 10.92C6.52915 10.92 5.22374 9.52318 5.22374 7.80006C5.22374 6.07694 6.52915 4.6801 8.13978 4.6801Z" fill="white"/>
</svg>
