<svg width="23" height="23" viewBox="0 0 23 23" fill="none" xmlns="http://www.w3.org/2000/svg">
<path d="M4.76172 23H18.2383C19.353 23 20.2598 22.0932 20.2598 20.9785V6.73828H15.543C14.4283 6.73828 13.5215 5.83149 13.5215 4.7168V0H4.76172C3.64703 0 2.74023 0.906793 2.74023 2.02148V20.9785C2.74023 22.0932 3.64703 23 4.76172 23ZM7.45703 9.47852H15.543C15.9154 9.47852 16.2168 9.7799 16.2168 10.1523C16.2168 10.5248 15.9154 10.8262 15.543 10.8262H7.45703C7.08458 10.8262 6.7832 10.5248 6.7832 10.1523C6.7832 9.7799 7.08458 9.47852 7.45703 9.47852ZM7.45703 12.1738H15.543C15.9154 12.1738 16.2168 12.4752 16.2168 12.8477C16.2168 13.2201 15.9154 13.5215 15.543 13.5215H7.45703C7.08458 13.5215 6.7832 13.2201 6.7832 12.8477C6.7832 12.4752 7.08458 12.1738 7.45703 12.1738ZM7.45703 14.8691H15.543C15.9154 14.8691 16.2168 15.1705 16.2168 15.543C16.2168 15.9154 15.9154 16.2168 15.543 16.2168H7.45703C7.08458 16.2168 6.7832 15.9154 6.7832 15.543C6.7832 15.1705 7.08458 14.8691 7.45703 14.8691ZM7.45703 17.5645H12.8477C13.2201 17.5645 13.5215 17.8658 13.5215 18.2383C13.5215 18.6107 13.2201 18.9121 12.8477 18.9121H7.45703C7.08458 18.9121 6.7832 18.6107 6.7832 18.2383C6.7832 17.8658 7.08458 17.5645 7.45703 17.5645Z" fill="#2F54EB"/>
<path d="M15.543 5.39061H19.8649L14.8691 0.394806V4.71678C14.8691 5.08856 15.1712 5.39061 15.543 5.39061Z" fill="#2F54EB"/>
</svg>
