<svg width="19" height="26" viewBox="0 0 19 26" fill="none" xmlns="http://www.w3.org/2000/svg">
<path d="M17.4571 2.22857H18.2C18.6104 2.22857 18.9428 1.89614 18.9428 1.48571V0.742857C18.9428 0.332429 18.6104 0 18.2 0H0.742857C0.332428 0 0 0.332429 0 0.742857V1.48571C0 1.89614 0.332428 2.22857 0.742857 2.22857H1.48571C1.48571 8.84 6.7559 9.09776 7.05714 13C6.7559 16.9022 1.48571 17.16 1.48571 23.7714H0.742857C0.332428 23.7714 0 24.1039 0 24.5143V25.2571C0 25.6676 0.332428 26 0.742857 26H18.2C18.6104 26 18.9428 25.6676 18.9428 25.2571V24.5143C18.9428 24.1039 18.6104 23.7714 18.2 23.7714H17.4571C17.4571 17.16 12.187 16.9022 11.8857 13C12.1869 9.09776 17.4571 8.84 17.4571 2.22857ZM15.2052 23.1549C15.3764 23.4 15.1985 23.7369 14.8991 23.7369H9.47142H3.98575C3.69828 23.7369 3.51666 23.4218 3.66485 23.1757C5.11752 20.7636 6.88661 18.9532 9.22219 17.1827C9.36518 17.0742 9.57056 17.0853 9.70357 17.206C12.0751 19.363 13.7596 21.0845 15.2052 23.1549ZM9.44209 11.1867L5.48114 7.23914C5.48114 7.23914 7.47199 8.04886 9.09142 8.04886C10.7108 8.04886 12.0945 6.90153 13.3094 6.90153C14.5243 6.90153 9.44209 11.1867 9.44209 11.1867Z" fill="white"/>
</svg>
